PathFileType	3	(X/Y/Z)	F:\ViconData\AntennenMessung\Messung1\Session1\ID11.trc
DataRate	CameraRate	NumFrames	NumMarkers	Units	OrigDataRate	OrigDataStartFrame	OrigNumFrames
120.0	120.0	4	70	mm	120.0	965	1286	
Frame#	Time	Ashort			Along			Atop			A4			Bshort			Blong			Btop			B4			Cshort			Clong			Ctop			C4			Dshort			Dlong			Dtop			D4			Eshort			Elong			Etop			E4			Fshort			Flong			Ftop			F4			Gshort			Glong			Gtop			G4			Hshort			Hlong			Htop			H4			I1			I2			I3			I4			I5			WandAshort			WandAlong			WandAtop			WandA4			WandA15			WandBshort			WandB4			WandB5			WandBtop			WandBlong			WandCshort			WandClong			WandCtop			WandC4			WandC5			Acenter			Aantenna			Bcenter			Bantenna			Ccenter			Cantenna			Dcenter			Dantenna			Ecenter			Eantenna			Fcenter			Fantenna			Gcenter			Gantenna			Hcenter			Hantenna			Icenter			Iantenna			
		X1	Y1	Z1	X2	Y2	Z2	X3	Y3	Z3	X4	Y4	Z4	X5	Y5	Z5	X6	Y6	Z6	X7	Y7	Z7	X8	Y8	Z8	X9	Y9	Z9	X10	Y10	Z10	X11	Y11	Z11	X12	Y12	Z12	X13	Y13	Z13	X14	Y14	Z14	X15	Y15	Z15	X16	Y16	Z16	X17	Y17	Z17	X18	Y18	Z18	X19	Y19	Z19	X20	Y20	Z20	X21	Y21	Z21	X22	Y22	Z22	X23	Y23	Z23	X24	Y24	Z24	X25	Y25	Z25	X26	Y26	Z26	X27	Y27	Z27	X28	Y28	Z28	X29	Y29	Z29	X30	Y30	Z30	X31	Y31	Z31	X32	Y32	Z32	X33	Y33	Z33	X34	Y34	Z34	X35	Y35	Z35	X36	Y36	Z36	X37	Y37	Z37	X38	Y38	Z38	X39	Y39	Z39	X40	Y40	Z40	X41	Y41	Z41	X42	Y42	Z42	X43	Y43	Z43	X44	Y44	Z44	X45	Y45	Z45	X46	Y46	Z46	X47	Y47	Z47	X48	Y48	Z48	X49	Y49	Z49	X50	Y50	Z50	X51	Y51	Z51	X52	Y52	Z52	X53	Y53	Z53	X54	Y54	Z54	X55	Y55	Z55	X56	Y56	Z56	X57	Y57	Z57	X58	Y58	Z58	X59	Y59	Z59	X60	Y60	Z60	X61	Y61	Z61	X62	Y62	Z62	X63	Y63	Z63	X64	Y64	Z64	X65	Y65	Z65	X66	Y66	Z66	X67	Y67	Z67	X68	Y68	Z68	X69	Y69	Z69	X70	Y70	Z70	
965	8.0333333	-1038.1931	214.33607	-1644.2998	-1109.2959	203.8537	-1599.3702	-1063.7384	172.58208	-1625.4727	-1054.1902	262.15961	-1634.9807	-1352.9768	234.91011	1003.8287	-1281.2668	227.05922	1052.4364	-1322.8658	194.07097	1020.9019	-1284.7477	287.84668	1052.844	814.00385	187.58289	1209.4446	892.47766	178.57091	1179.1915	844.61005	145.30336	1198.3673	860.73627	293.11365	1166.9935	1115.7747	209.78969	-1401.7238	1056.1797	194.01511	-1460.2511	1095.1309	162.50507	-1423.9779	1069.8823	238.63004	-1425.8575	-1204.594	1686.0063	-1563.0935	-1129.1321	1688.2357	-1606.0437	-1173.142	1724.4303	-1581.98	-1133.7211	1580.9899	-1603.7007	-1239.6857	1699.2419	1119.4735	-1309.3571	1698.7773	1071.8967	-1270.4365	1736.3103	1096.8794	-1244.6854	1593.7604	1106.5763	988.92798	1664.2554	1162.281	957.49652	1700.312	1183.8142	922.6618	1662.1003	1215.0077	939.84613	1659.3966	1160.0177	999.09015	1668.521	-1579.4565	1058.8883	1670.14	-1518.6479	1025.0139	1708.0139	-1551.1353	1059.271	1672.1323	-1585.4711	-26.367052	1173.1136	-954.3598	-111.52484	1171.7899	-962.95636	-64.765305	1209.6029	-959.29938	-60.619984	1170.6115	-989.70404	-68.955635	1175.348	-910.43823																																														-1068.8735	209.81299	-1624.913	-1074.2015	248.44293	-1624.3323	-1321.6097	231.47601	1025.0903	-1320.309	270.21219	1029.4279	848.20209	183.65552	1196.2605	851.83356	222.42763	1194.1304	1088.7341	202.63217	-1428.2797	1082.6288	240.93185	-1432.3856	-1171.8826	1686.9727	-1581.7117	-1170.572	1647.9957	-1581.4325	-1271.0098	1699.0331	1098.0829	-1271.6091	1660.0579	1099.3413	953.05518	1705.4066	1186.8567	972.8338	1733.5885	1168.5375	1026.5092	1669.2633	-1551.5741	1028.0129	1630.2948	-1552.0153	-64.300949	1172.5239	-958.18915	-63.812794	1133.5444	-957.02209
966	8.0416667	-1038.1981	214.31668	-1644.2667	-1109.3181	203.86404	-1599.3752	-1063.8976	172.52753	-1625.4209	-1054.1791	262.1572	-1634.9806	-1352.8007	235.25304	1003.7957	-1281.3408	227.0623	1052.4692	-1322.871	194.099	1020.8831	-1284.6345	287.88672	1052.791	814.07092	187.56982	1209.644	892.84589	179.1375	1178.6503	844.62543	145.28644	1198.3683	860.72284	292.7666	1167.3295	1115.7428	209.74162	-1401.7134	1056.1768	194.06857	-1460.2828	1095.0785	162.43887	-1423.9993	1069.8864	238.62991	-1425.8624	-1204.5233	1685.9429	-1563.2463	-1129.1282	1688.2278	-1606.0411	-1173.1477	1724.4418	-1581.9713	-1133.7061	1580.9962	-1603.683	-1239.7097	1699.2711	1119.4717	-1309.3118	1698.7355	1071.8832	-1270.4062	1736.2834	1096.8597	-1244.6875	1593.7008	1106.6097	988.8645	1664.2192	1162.287	957.56018	1700.3331	1183.8717	922.72388	1662.0198	1214.9573	939.81812	1659.4221	1159.9004	999.06702	1668.5509	-1579.5024	1058.8953	1670.1417	-1518.6492	1025.0125	1708.0038	-1551.1272	1059.2692	1672.1357	-1585.4623	-26.359377	1173.1201	-954.36029	-111.46496	1171.7325	-963.02679	-64.755432	1209.6057	-959.30872	-60.618786	1170.6105	-989.70099	-68.939613	1175.3464	-910.42065																																														-1068.9982	209.78992	-1624.8253	-1074.2867	248.42476	-1624.2079	-1321.4646	231.66129	1025.1395	-1320.0149	270.38647	1029.528	847.95447	183.94281	1196.3125	851.29608	222.74457	1194.2491	1088.7179	202.63081	-1428.286	1082.6556	240.9395	-1432.3717	-1171.8947	1686.9316	-1581.7666	-1170.5928	1647.9539	-1581.554	-1270.9675	1699.0304	1098.1	-1271.5547	1660.0565	1099.3976	953.25891	1705.2949	1186.8374	973.1181	1733.4402	1168.5492	1026.5111	1669.2805	-1551.5881	1028.019	1630.3125	-1552.0521	-64.26136	1172.5022	-958.21997	-63.74231	1133.5223	-957.07611
967	8.05	-1038.1991	214.3316	-1644.2842	-1109.2809	203.81892	-1599.3536	-1063.8221	172.3837	-1625.2971	-1054.1921	262.13879	-1634.9541	-1352.983	234.82933	1003.8873	-1281.2925	227.06926	1052.4384	-1322.8718	193.97247	1020.9202	-1284.6432	287.90039	1052.8345	814.05511	187.53659	1209.5995	892.44006	179.66704	1177.6788	844.59454	145.40265	1198.3512	860.63379	292.75604	1167.3472	1115.7646	209.77226	-1401.7429	1056.2321	194.13214	-1460.3004	1095.0443	162.21645	-1423.9374	1069.8831	238.63603	-1425.8875	-1204.5933	1686.0107	-1563.1147	-1129.1445	1688.2477	-1606.0566	-1173.1326	1724.441	-1581.9856	-1133.6836	1580.9814	-1603.6659	-1239.6536	1699.1796	1119.4476	-1309.4015	1698.8624	1071.9297	-1270.4229	1736.2986	1096.8656	-1244.7028	1593.7214	1106.5448	988.84821	1664.1975	1162.2753	957.18939	1700.5975	1183.745	922.68146	1662.1204	1215.0306	939.83746	1659.3558	1159.9512	999.06384	1668.547	-1579.4935	1058.8948	1670.1429	-1518.6584	1025.0145	1708.0067	-1551.1311	1059.2688	1672.1333	-1585.4612	-26.370899	1173.1224	-954.35986	-111.41072	1171.6591	-962.97491	-64.769653	1209.6034	-959.30316	-60.619667	1170.6085	-989.70197	-68.954285	1175.3718	-910.42548																																														-1069.0334	209.7713	-1624.7938	-1074.417	248.39444	-1624.2738	-1321.6512	231.43785	1025.1061	-1320.3892	270.17639	1029.4343	847.51849	184.177	1195.9722	850.44574	222.99399	1193.5907	1088.7358	202.67137	-1428.329	1082.7611	240.98592	-1432.4883	-1171.8788	1686.9806	-1581.7343	-1170.5745	1648.0032	-1581.4729	-1271.0605	1699.0366	1098.0505	-1271.7278	1660.0621	1099.29	953.06067	1705.3444	1186.5449	972.79993	1733.4297	1168.036	1026.5103	1669.2791	-1551.5863	1028.0153	1630.3108	-1552.0443	-64.242828	1172.4707	-958.19653	-63.689804	1133.4918	-957.03491
968	8.0583333	-1038.1837	214.30556	-1644.2664	-1109.3203	203.78862	-1599.3518	-1063.8392	172.60437	-1625.4025	-1054.1921	262.19525	-1634.9666	-1352.9437	234.82301	1003.8054	-1281.266	227.07594	1052.4167	-1322.8441	193.98846	1020.9017	-1284.6199	287.86807	1052.767	814.16315	187.43309	1209.4663	892.81598	179.19196	1178.6285	844.6297	145.30122	1198.3805	860.73798	292.7265	1167.2894	1115.7297	209.50432	-1401.5735	1056.2543	194.12016	-1460.3003	1095.0544	162.26245	-1423.8818	1069.8776	238.62074	-1425.897	-1204.5961	1686.0217	-1563.1039	-1129.1674	1688.3521	-1606.5573	-1173.1475	1724.4261	-1581.9874	-1133.6404	1580.972	-1603.6643	-1239.7095	1699.2656	1119.4714	-1309.2072	1698.5863	1071.8348	-1270.4484	1736.3442	1096.88	-1244.6361	1593.8584	1106.5873	988.85858	1664.225	1162.2965	957.56494	1700.3059	1183.903	922.73718	1662.0236	1214.9283	939.79309	1659.4458	1159.9414	999.07672	1668.5211	-1579.4701	1058.9009	1670.1484	-1518.6439	1025.0216	1708.01	-1551.1332	1059.2725	1672.1382	-1585.4517	-26.371262	1173.1174	-954.34406	-111.64223	1172.0021	-963.01721	-64.767838	1209.5962	-959.30261	-60.765549	1170.5289	-989.60529	-68.919395	1175.3979	-910.41913																																														-1068.9691	209.75417	-1624.8287	-1074.3035	248.38303	-1624.2322	-1321.6125	231.43671	1025.0538	-1320.3386	270.17847	1029.3495	847.84344	183.90411	1196.2611	851.07434	222.71161	1194.1305	1088.8317	202.54678	-1428.1329	1082.9102	240.88177	-1432.1781	-1171.9484	1687.0303	-1581.9116	-1170.6986	1648.0504	-1581.8328	-1270.9094	1698.9606	1098.0857	-1271.3903	1659.9839	1099.3428	953.24927	1705.2817	1186.8826	973.11298	1733.4434	1168.6245	1026.5183	1669.2676	-1551.5687	1028.0238	1630.2991	-1552.007	-64.39521	1172.6201	-958.21155	-64.00238	1133.639	-957.06134
